PathFileType	4	(X/Y/Z)	OpenSim_Sub02_CSBaseline_Gyro.trc
DataRate	CameraRate	NumFrames	NumMarkers	Units	OrigDataRate	OrigDataStartFrame	OrigNumFrames
100	100	20	8	m	100	5293	7057
Frame#	Time	torso_imu_offset_imu	pelvis_imu_offset_imu	tibia_r_imu_offset_imu	femur_r_imu_offset_imu	tibia_l_imu_offset_imu	femur_l_imu_offset_imu	toes_r_imu_offset_imu	toes_l_imu_offset_imu
				X1	Y1	Z1	X2	Y2	Z2	X3	Y3	Z3	X4	Y4	Z4	X5	Y5	Z5	X6	Y6	Z6	X7	Y7	Z7	X8		Y8	Z8	

5293	52.92000000	0.45475250	0.65993304	0.09136808	-0.04189568	0.01331360	0.82495719	1.26408195	0.61914925	-1.82844225	-0.81629352	-0.80712589	-1.19224483	1.05069872	1.05821901	2.69871047	0.28775156	1.13135850	-0.92252262	2.45726428	-2.27816660	0.24134554	0.89076465	-5.30448805	0.62697809
5294	52.93000000	0.46023221	0.66403283	0.12350518	-0.40617789	0.01647982	0.87368023	3.94487850	0.71699790	-2.12439075	0.26404591	0.26247785	-0.41756554	1.24452027	1.07274979	2.88020067	0.33595303	1.14741208	-1.29448503	1.35684423	-1.24410787	0.22115673	0.84373519	-6.28448112	0.79897142
5295	52.94000000	0.48176795	0.60154707	0.15284084	-0.56742513	-0.03800973	0.85126708	4.83756358	0.73482755	-1.80875439	0.56481772	0.32599288	0.51581210	1.41134612	1.11599456	3.00820556	0.50501524	1.12919152	-1.74833492	1.13257208	-0.52826053	-0.00120523	0.39461711	-7.37372064	0.98882880
5296	52.95000000	0.47729153	0.51003362	0.16424998	-0.31789728	-0.14457355	0.72540527	4.70605230	0.52733899	-1.79161254	0.83063614	-0.84052967	1.16106336	1.32075081	1.22356007	3.08506124	0.73622755	1.08645044	-2.19042231	-1.11412364	-0.47357022	-0.02640910	0.27165399	-8.32451468	1.03550695
5297	52.96000000	0.45820634	0.39118019	0.15768050	0.11936868	-0.22906928	0.55590453	3.71567844	0.12085237	-1.81044735	1.73950242	-1.59157153	1.00366706	0.96889298	1.36073350	3.15767126	0.95332077	0.98006825	-2.53848333	0.07247089	-0.39204354	0.16305087	0.73364168	-8.88089082	1.00993361
5298	52.97000000	0.46111990	0.23853826	0.16344386	0.45027025	-0.29580206	0.51311770	2.61086013	-0.13217643	-1.49629521	2.47337766	-1.15690575	0.07884026	0.99536321	1.41702620	3.23921932	1.15671749	0.81774503	-2.74471358	0.33935883	-0.20960260	0.13512298	0.79339607	-8.86049689	1.45429812
5299	52.98000000	0.46365979	0.08581679	0.18297213	0.57482639	-0.30354283	0.57490151	1.96389063	-0.07893336	-0.87362748	2.24170187	-0.43653053	-0.99794826	1.80068898	1.47517294	3.15767649	1.29744693	0.72089462	-2.85483846	-0.18081878	-0.13394251	0.09889715	0.58359407	-8.15514112	2.18289750
5300	52.99000000	0.44342969	-0.02845082	0.19465288	0.58502296	-0.24315123	0.63884359	1.71877380	-0.01763791	-0.49004762	1.18645958	-0.35986576	-1.81732715	2.58753001	1.48870072	2.81180592	1.31256508	0.67127371	-2.92554280	0.21960810	0.04475593	0.10246265	0.71890863	-6.91879360	2.59480076
5301	53.00000000	0.41634214	-0.11571775	0.21803250	0.57273408	-0.15789055	0.69004485	1.28773738	-0.36648909	-0.56597511	0.15380573	-0.62777770	-2.03088871	2.42610707	1.17816396	2.21689264	1.18663727	0.53537087	-2.99462260	0.09803142	-0.00709936	0.03286073	0.74656441	-6.01059563	2.77466688
5302	53.01000000	0.39054498	-0.17016000	0.26419853	0.62857969	-0.05826056	0.66320135	-0.27701458	-0.97451322	-0.73734656	-0.16968323	-0.67459579	-1.86336664	1.63539260	0.87811230	1.54749845	1.10095392	0.23521736	-3.01885577	0.04030336	-0.00550856	-0.00479786	0.98019416	-5.39504504	2.90088286
5303	53.02000000	0.40582839	-0.19513159	0.31859093	0.74246635	-0.01079123	0.54500861	-2.44300227	-1.21731171	-0.84908099	0.09473205	-0.63086713	-1.42658220	0.53016107	1.01279235	1.14964695	1.07664562	-0.16641570	-2.90313631	0.04031693	0.00237415	-0.01499178	1.11808099	-4.79212913	2.99225965
5304	53.03000000	0.47214382	-0.21098799	0.35749113	0.84766707	-0.03656360	0.37047111	-3.73342107	-1.06016680	-0.88238095	0.47740152	-0.70709674	-0.91770634	-0.48841577	1.08743235	0.91476052	1.07359972	-0.57665804	-2.65586595	-0.01122499	-0.00937506	0.00685588	0.92784492	-4.17952550	3.24906885
5305	53.04000000	0.55796734	-0.23576116	0.37148702	0.91668523	-0.08767787	0.17833297	-3.87486325	-0.89388361	-0.84482193	0.66758037	-0.77141053	-0.63001772	-0.77718862	0.94097669	0.61473486	0.97728259	-0.92635419	-2.48934502	-0.16124892	-0.05304556	0.04677007	1.12087094	-2.61156225	3.29945849
5306	53.05000000	0.64258081	-0.27107651	0.36156309	0.90502452	-0.16142148	0.01900737	-3.25116815	-0.68656459	-0.86910557	0.68741126	-0.69006886	-0.61542004	-0.40353207	0.86103046	0.31144584	0.81363276	-1.16192114	-2.37048636	-0.17313713	-0.07608548	0.07296938	1.59780430	1.11610174	2.51704373
5307	53.06000000	0.70137224	-0.29808746	0.32782141	0.78483268	-0.23591133	-0.15266367	-1.94673166	-0.24890056	-0.87029443	0.68964576	-0.57617362	-0.76490910	-0.10942416	0.83044717	0.19493099	0.67502037	-1.29122642	-2.19925627	-0.14178219	-0.10751705	0.08439998	0.89587795	3.22414762	1.85021588
5308	53.07000000	0.75164920	-0.30409495	0.28649362	0.62451502	-0.28424542	-0.32995492	-0.27451815	0.12038327	-0.65191007	0.63665333	-0.53320102	-0.92598537	-0.08796592	0.39927852	0.25235298	0.46919362	-1.34379622	-2.01961482	-0.19400859	-0.11662544	0.09564381	0.05655960	4.16155969	1.38721159
5309	53.08000000	0.79548456	-0.31136553	0.24253923	0.48682877	-0.29957548	-0.47155425	1.21945874	0.15190224	-0.36859325	0.43542870	-0.53978373	-0.96866572	0.02919220	-0.37628689	0.21114454	0.21784864	-1.31800161	-1.87492584	-0.13137776	-0.12879770	0.09459289	-0.72653906	4.15821625	1.11554015
5310	53.09000000	0.82424729	-0.32988372	0.19381459	0.36871904	-0.28598253	-0.53329897	2.22669417	0.04487254	-0.24897498	0.05978283	-0.54594845	-0.89550278	0.54992008	-1.03445898	-0.06851215	-0.16884657	-1.15214361	-1.71043990	-0.06703569	-0.14355147	0.09109879	-1.02062721	3.88157952	0.81888370
5311	53.10000000	0.83109269	-0.34979827	0.15164816	0.29138046	-0.23384626	-0.54231529	2.63128102	0.00082613	-0.31676129	-0.41392488	-0.52261929	-0.77714116	1.20553955	-1.29678922	-0.57921400	-0.64443206	-0.94625507	-1.55051603	-0.08234900	-0.16457598	0.06547779	-0.87231995	3.64450869	0.41865511
5312	53.11000000	0.82355142	-0.34579927	0.12561630	0.24548122	-0.14976164	-0.54299495	2.23900551	-0.04442007	-0.44242699	-0.82987616	-0.49622207	-0.65585488	1.62375834	-1.23779623	-1.23703529	-1.16811510	-0.76113873	-1.44245741	-0.07429400	-0.17975083	0.01377622	-0.44023124	3.43454205	-0.06714222
